<svg width="279" height="49" viewBox="0 0 279 49" fill="none" xmlns="http://www.w3.org/2000/svg">
<path d="M25.2891 37L23.2734 27.8359L20.5547 16.2578H20.3906L15.6094 37H7.92188L0.46875 10.7969H7.59375L10.6172 22.3984C11.1016 24.4766 11.5938 27.3438 12.0938 31H12.2344C12.2969 29.8125 12.5703 27.9297 13.0547 25.3516L13.4297 23.3594L16.6641 10.7969H24.5391L27.6094 23.3594C27.6719 23.7031 27.7656 24.2109 27.8906 24.8828C28.0312 25.5547 28.1641 26.2734 28.2891 27.0391C28.4141 27.7891 28.5234 28.5312 28.6172 29.2656C28.7266 29.9844 28.7891 30.5625 28.8047 31H28.9453C29.0859 29.875 29.3359 28.3359 29.6953 26.3828C30.0547 24.4141 30.3125 23.0859 30.4688 22.3984L33.6094 10.7969H40.6172L33.0703 37H25.2891ZM55.7109 15.3906C54.1953 15.3906 53.0078 15.875 52.1484 16.8438C51.2891 17.7969 50.7969 19.1562 50.6719 20.9219H60.7031C60.6719 19.1562 60.2109 17.7969 59.3203 16.8438C58.4297 15.875 57.2266 15.3906 55.7109 15.3906ZM56.7188 37.4688C52.5 37.4688 49.2031 36.3047 46.8281 33.9766C44.4531 31.6484 43.2656 28.3516 43.2656 24.0859C43.2656 19.6953 44.3594 16.3047 46.5469 13.9141C48.75 11.5078 51.7891 10.3047 55.6641 10.3047C59.3672 10.3047 62.25 11.3594 64.3125 13.4688C66.375 15.5781 67.4062 18.4922 67.4062 22.2109V25.6797H50.5078C50.5859 27.7109 51.1875 29.2969 52.3125 30.4375C53.4375 31.5781 55.0156 32.1484 57.0469 32.1484C58.625 32.1484 60.1172 31.9844 61.5234 31.6562C62.9297 31.3281 64.3984 30.8047 65.9297 30.0859V35.6172C64.6797 36.2422 63.3438 36.7031 61.9219 37C60.5 37.3125 58.7656 37.4688 56.7188 37.4688ZM181.594 37.4688C178.516 37.4688 176.094 36.2734 174.328 33.8828C172.578 31.4922 171.703 28.1797 171.703 23.9453C171.703 19.6484 172.594 16.3047 174.375 13.9141C176.172 11.5078 178.641 10.3047 181.781 10.3047C185.078 10.3047 187.594 11.5859 189.328 14.1484H189.562C189.203 12.1953 189.023 10.4531 189.023 8.92188V0.53125H196.195V37H190.711L189.328 33.6016H189.023C187.398 36.1797 184.922 37.4688 181.594 37.4688ZM184.102 31.7734C185.93 31.7734 187.266 31.2422 188.109 30.1797C188.969 29.1172 189.438 27.3125 189.516 24.7656V23.9922C189.516 21.1797 189.078 19.1641 188.203 17.9453C187.344 16.7266 185.938 16.1172 183.984 16.1172C182.391 16.1172 181.148 16.7969 180.258 18.1562C179.383 19.5 178.945 21.4609 178.945 24.0391C178.945 26.6172 179.391 28.5547 180.281 29.8516C181.172 31.1328 182.445 31.7734 184.102 31.7734ZM209.367 23.8516C209.367 26.4453 209.789 28.4062 210.633 29.7344C211.492 31.0625 212.883 31.7266 214.805 31.7266C216.711 31.7266 218.078 31.0703 218.906 29.7578C219.75 28.4297 220.172 26.4609 220.172 23.8516C220.172 21.2578 219.75 19.3125 218.906 18.0156C218.062 16.7188 216.68 16.0703 214.758 16.0703C212.852 16.0703 211.477 16.7188 210.633 18.0156C209.789 19.2969 209.367 21.2422 209.367 23.8516ZM227.484 23.8516C227.484 28.1172 226.359 31.4531 224.109 33.8594C221.859 36.2656 218.727 37.4688 214.711 37.4688C212.195 37.4688 209.977 36.9219 208.055 35.8281C206.133 34.7188 204.656 33.1328 203.625 31.0703C202.594 29.0078 202.078 26.6016 202.078 23.8516C202.078 19.5703 203.195 16.2422 205.43 13.8672C207.664 11.4922 210.805 10.3047 214.852 10.3047C217.367 10.3047 219.586 10.8516 221.508 11.9453C223.43 13.0391 224.906 14.6094 225.938 16.6562C226.969 18.7031 227.484 21.1016 227.484 23.8516ZM256.195 10.7969V14.4297L252.094 15.4844C252.844 16.6562 253.219 17.9688 253.219 19.4219C253.219 22.2344 252.234 24.4297 250.266 26.0078C248.312 27.5703 245.594 28.3516 242.109 28.3516L240.82 28.2812L239.766 28.1641C239.031 28.7266 238.664 29.3516 238.664 30.0391C238.664 31.0703 239.977 31.5859 242.602 31.5859H247.055C249.93 31.5859 252.117 32.2031 253.617 33.4375C255.133 34.6719 255.891 36.4844 255.891 38.875C255.891 41.9375 254.609 44.3125 252.047 46C249.5 47.6875 245.836 48.5312 241.055 48.5312C237.398 48.5312 234.602 47.8906 232.664 46.6094C230.742 45.3438 229.781 43.5625 229.781 41.2656C229.781 39.6875 230.273 38.3672 231.258 37.3047C232.242 36.2422 233.688 35.4844 235.594 35.0312C234.859 34.7188 234.219 34.2109 233.672 33.5078C233.125 32.7891 232.852 32.0312 232.852 31.2344C232.852 30.2344 233.141 29.4062 233.719 28.75C234.297 28.0781 235.133 27.4219 236.227 26.7812C234.852 26.1875 233.758 25.2344 232.945 23.9219C232.148 22.6094 231.75 21.0625 231.75 19.2812C231.75 16.4219 232.68 14.2109 234.539 12.6484C236.398 11.0859 239.055 10.3047 242.508 10.3047C243.242 10.3047 244.109 10.375 245.109 10.5156C246.125 10.6406 246.773 10.7344 247.055 10.7969H256.195ZM235.969 40.7031C235.969 41.6875 236.438 42.4609 237.375 43.0234C238.328 43.5859 239.656 43.8672 241.359 43.8672C243.922 43.8672 245.93 43.5156 247.383 42.8125C248.836 42.1094 249.562 41.1484 249.562 39.9297C249.562 38.9453 249.133 38.2656 248.273 37.8906C247.414 37.5156 246.086 37.3281 244.289 37.3281H240.586C239.273 37.3281 238.172 37.6328 237.281 38.2422C236.406 38.8672 235.969 39.6875 235.969 40.7031ZM238.57 19.375C238.57 20.7969 238.891 21.9219 239.531 22.75C240.188 23.5781 241.18 23.9922 242.508 23.9922C243.852 23.9922 244.836 23.5781 245.461 22.75C246.086 21.9219 246.398 20.7969 246.398 19.375C246.398 16.2188 245.102 14.6406 242.508 14.6406C239.883 14.6406 238.57 16.2188 238.57 19.375ZM278.812 29.2188C278.812 31.9062 277.875 33.9531 276 35.3594C274.141 36.7656 271.352 37.4688 267.633 37.4688C265.727 37.4688 264.102 37.3359 262.758 37.0703C261.414 36.8203 260.156 36.4453 258.984 35.9453V30.0391C260.312 30.6641 261.805 31.1875 263.461 31.6094C265.133 32.0312 266.602 32.2422 267.867 32.2422C270.461 32.2422 271.758 31.4922 271.758 29.9922C271.758 29.4297 271.586 28.9766 271.242 28.6328C270.898 28.2734 270.305 27.875 269.461 27.4375C268.617 26.9844 267.492 26.4609 266.086 25.8672C264.07 25.0234 262.586 24.2422 261.633 23.5234C260.695 22.8047 260.008 21.9844 259.57 21.0625C259.148 20.125 258.938 18.9766 258.938 17.6172C258.938 15.2891 259.836 13.4922 261.633 12.2266C263.445 10.9453 266.008 10.3047 269.32 10.3047C272.477 10.3047 275.547 10.9922 278.531 12.3672L276.375 17.5234C275.062 16.9609 273.836 16.5 272.695 16.1406C271.555 15.7812 270.391 15.6016 269.203 15.6016C267.094 15.6016 266.039 16.1719 266.039 17.3125C266.039 17.9531 266.375 18.5078 267.047 18.9766C267.734 19.4453 269.227 20.1406 271.523 21.0625C273.57 21.8906 275.07 22.6641 276.023 23.3828C276.977 24.1016 277.68 24.9297 278.133 25.8672C278.586 26.8047 278.812 27.9219 278.812 29.2188Z" fill="black"/>
<path d="M80.3672 37H73.2188V0.53125H80.3672V37ZM93.5859 23.8516C93.5859 26.4453 94.0078 28.4062 94.8516 29.7344C95.7109 31.0625 97.1016 31.7266 99.0234 31.7266C100.93 31.7266 102.297 31.0703 103.125 29.7578C103.969 28.4297 104.391 26.4609 104.391 23.8516C104.391 21.2578 103.969 19.3125 103.125 18.0156C102.281 16.7188 100.898 16.0703 98.9766 16.0703C97.0703 16.0703 95.6953 16.7188 94.8516 18.0156C94.0078 19.2969 93.5859 21.2422 93.5859 23.8516ZM111.703 23.8516C111.703 28.1172 110.578 31.4531 108.328 33.8594C106.078 36.2656 102.945 37.4688 98.9297 37.4688C96.4141 37.4688 94.1953 36.9219 92.2734 35.8281C90.3516 34.7188 88.875 33.1328 87.8438 31.0703C86.8125 29.0078 86.2969 26.6016 86.2969 23.8516C86.2969 19.5703 87.4141 16.2422 89.6484 13.8672C91.8828 11.4922 95.0234 10.3047 99.0703 10.3047C101.586 10.3047 103.805 10.8516 105.727 11.9453C107.648 13.0391 109.125 14.6094 110.156 16.6562C111.188 18.7031 111.703 21.1016 111.703 23.8516ZM123.844 37L113.859 10.7969H121.336L126.398 25.7266C126.961 27.6172 127.312 29.4062 127.453 31.0938H127.594C127.672 29.5938 128.023 27.8047 128.648 25.7266L133.688 10.7969H141.164L131.18 37H123.844ZM155.789 15.3906C154.273 15.3906 153.086 15.875 152.227 16.8438C151.367 17.7969 150.875 19.1562 150.75 20.9219H160.781C160.75 19.1562 160.289 17.7969 159.398 16.8438C158.508 15.875 157.305 15.3906 155.789 15.3906ZM156.797 37.4688C152.578 37.4688 149.281 36.3047 146.906 33.9766C144.531 31.6484 143.344 28.3516 143.344 24.0859C143.344 19.6953 144.438 16.3047 146.625 13.9141C148.828 11.5078 151.867 10.3047 155.742 10.3047C159.445 10.3047 162.328 11.3594 164.391 13.4688C166.453 15.5781 167.484 18.4922 167.484 22.2109V25.6797H150.586C150.664 27.7109 151.266 29.2969 152.391 30.4375C153.516 31.5781 155.094 32.1484 157.125 32.1484C158.703 32.1484 160.195 31.9844 161.602 31.6562C163.008 31.3281 164.477 30.8047 166.008 30.0859V35.6172C164.758 36.2422 163.422 36.7031 162 37C160.578 37.3125 158.844 37.4688 156.797 37.4688Z" fill="#7ED321"/>
</svg>
