<svg width="16" height="18" viewBox="0 0 16 18" fill="none" xmlns="http://www.w3.org/2000/svg">
<g clip-path="url(#clip0_5_69)">
<path d="M8.00356 4.95702C5.73213 4.95702 3.89999 6.76053 3.89999 8.99647C3.89999 11.2324 5.73213 13.0359 8.00356 13.0359C10.275 13.0359 12.1071 11.2324 12.1071 8.99647C12.1071 6.76053 10.275 4.95702 8.00356 4.95702ZM8.00356 11.6226C6.5357 11.6226 5.3357 10.4449 5.3357 8.99647C5.3357 7.54803 6.53213 6.3703 8.00356 6.3703C9.47499 6.3703 10.6714 7.54803 10.6714 8.99647C10.6714 10.4449 9.47142 11.6226 8.00356 11.6226ZM13.2321 4.79178C13.2321 5.31561 12.8036 5.73397 12.275 5.73397C11.7428 5.73397 11.3178 5.3121 11.3178 4.79178C11.3178 4.27147 11.7464 3.8496 12.275 3.8496C12.8036 3.8496 13.2321 4.27147 13.2321 4.79178ZM15.95 5.74803C15.8893 4.48592 15.5964 3.36796 14.6571 2.44686C13.7214 1.52577 12.5857 1.23749 11.3036 1.17421C9.98213 1.10038 6.02142 1.10038 4.69999 1.17421C3.42142 1.23397 2.28571 1.52225 1.34642 2.44335C0.407136 3.36444 0.11785 4.48241 0.0535644 5.74452C-0.0214355 7.0453 -0.0214355 10.9441 0.0535644 12.2449C0.114279 13.507 0.407136 14.625 1.34642 15.5461C2.28571 16.4672 3.41785 16.7555 4.69999 16.8187C6.02142 16.8926 9.98213 16.8926 11.3036 16.8187C12.5857 16.759 13.7214 16.4707 14.6571 15.5461C15.5928 14.625 15.8857 13.507 15.95 12.2449C16.025 10.9441 16.025 7.04882 15.95 5.74803ZM14.2428 13.6406C13.9643 14.3297 13.425 14.8605 12.7214 15.1383C11.6678 15.5496 9.16784 15.4547 8.00356 15.4547C6.83927 15.4547 4.3357 15.5461 3.28571 15.1383C2.58571 14.864 2.04642 14.3332 1.76428 13.6406C1.34642 12.6035 1.44285 10.1426 1.44285 8.99647C1.44285 7.85038 1.34999 5.38592 1.76428 4.35233C2.04285 3.66327 2.58213 3.13241 3.28571 2.85467C4.33928 2.44335 6.83927 2.53827 8.00356 2.53827C9.16784 2.53827 11.6714 2.44686 12.7214 2.85467C13.4214 3.12889 13.9607 3.65975 14.2428 4.35233C14.6607 5.38944 14.5643 7.85038 14.5643 8.99647C14.5643 10.1426 14.6607 12.607 14.2428 13.6406Z" fill="#0065FF"/>
</g>
<defs>
<clipPath id="clip0_5_69">
<rect width="16" height="18" fill="white"/>
</clipPath>
</defs>
</svg>
